<svg width="13" height="66" viewBox="0 0 13 66" fill="none" xmlns="http://www.w3.org/2000/svg">
<path d="M12.6665 0L12.6665 2L10.6665 2L10.6665 -8.74228e-08L12.6665 0Z" fill="#FF4800"/>
<path d="M12.6665 10.6667L12.6665 12.6667L10.6665 12.6667L10.6665 10.6667L12.6665 10.6667Z" fill="#FF4800"/>
<path d="M12.6665 21.3333L12.6665 23.3333L10.6665 23.3333L10.6665 21.3333L12.6665 21.3333Z" fill="#FF4800"/>
<path d="M12.6665 32L12.6665 34L10.6665 34L10.6665 32L12.6665 32Z" fill="#FF4800"/>
<path d="M12.6665 42.6667L12.6665 44.6667L10.6665 44.6667L10.6665 42.6667L12.6665 42.6667Z" fill="#FF4800"/>
<path d="M1.99984 -4.66255e-07L1.99984 2L-0.000163166 2L-0.000163078 -5.53678e-07L1.99984 -4.66255e-07Z" fill="#FF4800"/>
<path d="M1.99984 10.6667L1.99984 12.6667L-0.000163632 12.6667L-0.000163545 10.6667L1.99984 10.6667Z" fill="#FF4800"/>
<path d="M1.99984 21.3333L1.99984 23.3333L-0.000164098 23.3333L-0.000164011 21.3333L1.99984 21.3333Z" fill="#FF4800"/>
<path d="M1.99984 32L1.99984 34L-0.000164564 34L-0.000164477 32L1.99984 32Z" fill="#FF4800"/>
<path d="M1.99984 42.6667L1.99983 44.6667L-0.000165031 44.6667L-0.000164943 42.6667L1.99984 42.6667Z" fill="#FF4800"/>
<path d="M12.6665 32L12.6665 34L10.6665 34L10.6665 32L12.6665 32Z" fill="#FF4800"/>
<path d="M1.99984 32L1.99984 34L-0.000164564 34L-0.000164477 32L1.99984 32Z" fill="#FF4800"/>
<path d="M12.6665 42.6667L12.6665 44.6667L10.6665 44.6667L10.6665 42.6667L12.6665 42.6667Z" fill="#FF4800"/>
<path d="M1.99984 42.6667L1.99983 44.6667L-0.000165031 44.6667L-0.000164943 42.6667L1.99984 42.6667Z" fill="#FF4800"/>
<path d="M12.6665 53L12.6665 55L10.6665 55L10.6665 53L12.6665 53Z" fill="#FF4800"/>
<path d="M1.99983 53L1.99983 55L-0.000165482 55L-0.000165395 53L1.99983 53Z" fill="#FF4800"/>
<path d="M12.6665 63.5L12.6665 65.5L10.6665 65.5L10.6665 63.5L12.6665 63.5Z" fill="#FF4800"/>
<path d="M1.99983 63.5L1.99983 65.5L-0.000165941 65.5L-0.000165854 63.5L1.99983 63.5Z" fill="#FF4800"/>
</svg>
