<svg width="33" height="64" viewBox="0 0 33 64" fill="none" xmlns="http://www.w3.org/2000/svg">
<path d="M2.53641e-05 32.6274L2.00003 32.6274L2.00003 30.6274L2.52767e-05 30.6274L2.53641e-05 32.6274Z" fill="#FF4800"/>
<path d="M7.65688 40.2843L9.65688 40.2843L9.65688 38.2843L7.65688 38.2843L7.65688 40.2843Z" fill="#FF4800"/>
<path d="M15.3137 47.9411L17.3137 47.9411L17.3137 45.9411L15.3137 45.9411L15.3137 47.9411Z" fill="#FF4800"/>
<path d="M22.9706 55.598L24.9706 55.598L24.9706 53.598L22.9706 53.598L22.9706 55.598Z" fill="#FF4800"/>
<path d="M30.6274 63.2548L32.6274 63.2548L32.6274 61.2548L30.6274 61.2548L30.6274 63.2548Z" fill="#FF4800"/>
<path d="M7.65688 24.9705L9.65688 24.9705L9.65688 22.9705L7.65688 22.9705L7.65688 24.9705Z" fill="#FF4800"/>
<path d="M15.3137 32.6274L17.3137 32.6274L17.3137 30.6274L15.3137 30.6274L15.3137 32.6274Z" fill="#FF4800"/>
<path d="M22.9706 40.2843L24.9706 40.2843L24.9706 38.2843L22.9706 38.2843L22.9706 40.2843Z" fill="#FF4800"/>
<path d="M30.6274 47.9411L32.6274 47.9411L32.6274 45.9411L30.6274 45.9411L30.6274 47.9411Z" fill="#FF4800"/>
<path d="M15.3137 17.3137L17.3137 17.3137L17.3137 15.3137L15.3137 15.3137L15.3137 17.3137Z" fill="#FF4800"/>
<path d="M22.9706 24.9705L24.9706 24.9705L24.9706 22.9705L22.9706 22.9705L22.9706 24.9705Z" fill="#FF4800"/>
<path d="M30.6274 32.6274L32.6274 32.6274L32.6274 30.6274L30.6274 30.6274L30.6274 32.6274Z" fill="#FF4800"/>
<path d="M22.9706 9.65684L24.9706 9.65684L24.9706 7.65684L22.9706 7.65684L22.9706 9.65684Z" fill="#FF4800"/>
<path d="M30.6274 17.3137L32.6274 17.3137L32.6274 15.3137L30.6274 15.3137L30.6274 17.3137Z" fill="#FF4800"/>
<path d="M30.6274 1.99998L32.6274 1.99998L32.6274 -1.52588e-05L30.6274 -1.51714e-05L30.6274 1.99998Z" fill="#FF4800"/>
</svg>
