<svg width="119" height="24" viewBox="0 0 119 24" fill="none" xmlns="http://www.w3.org/2000/svg">
<path d="M50.85 16.7663L49.6138 23.2544H56.0764L57.3149 16.7663H50.85Z" fill="#FF4800"/>
<path d="M54.0324 0C54.0324 0 52.6193 7.54971 51.4064 13.7352H65.2929C66.152 13.7352 66.8085 14.5174 66.6572 15.3765L66.4546 16.2611C66.3033 17.0689 65.5956 17.6509 64.7622 17.6509L60.2924 17.6765L59.2308 23.2568H67.8398C70.5659 23.2568 72.8892 21.3641 73.42 18.6869C73.5969 17.7021 73.8251 16.6918 73.9997 15.7326C74.4536 13.4093 72.561 11.668 70.1864 11.668L70.3377 10.9114C72.7868 10.8345 74.5281 9.57275 74.9844 7.1493L75.3127 5.30552C75.7969 2.54916 73.7273 0 70.9244 0H54.0324ZM67.4394 6.86761L67.3625 7.34718C67.1856 8.2551 66.3778 8.9116 65.4699 8.9116H59.7639L60.4204 5.40097H66.2288C67.011 5.4289 67.5907 6.13662 67.4394 6.86761Z" fill="white"/>
<path d="M99.2539 0L98.1178 5.88286H104.229L100.895 23.2544H108.419L111.753 5.88286H117.887L119 0H99.2539Z" fill="white"/>
<path d="M33.8067 10.05C34.2607 7.65215 35.8274 5.90847 38.8073 5.90847H49.9933L51.0782 0H36.8634C31.914 0 28.2777 1.91827 26.7133 8.38314C26.1825 10.5552 25.8286 12.9274 25.4259 15.0994C24.6181 19.3154 27.8237 23.2544 32.1166 23.28H46.6852L49.4625 8.96281H37.6712L36.7353 13.7608H41.5822L40.9025 17.3203H36.1813C32.9989 17.3203 32.7731 15.5534 33.1269 13.6328L33.8067 10.05Z" fill="#FF4800"/>
<path d="M8.50825 10.05C8.96221 7.65215 10.529 5.90847 13.5088 5.90847H24.6949L25.803 0H11.5626C6.61325 0 2.97691 1.91827 1.41249 8.38314C0.881707 10.5552 0.52785 12.9274 0.125106 15.0994C-0.682712 19.2898 2.52295 23.2544 6.81579 23.2544H21.3844L24.1617 8.9372H12.3448L11.4113 13.7352H16.2582L15.5761 17.2971H10.8549C7.67249 17.2971 7.44668 15.5301 7.80053 13.6095L8.50825 10.05Z" fill="#FF4800"/>
<path d="M78.3717 2.97984L75.1148 20.3002C74.8378 21.8413 75.9994 23.2288 77.5639 23.2288H94.7585L95.869 17.4205H82.9672L83.6749 13.7096H93.0684L93.9763 8.93721H84.6084L85.1881 5.90614H96.3741L97.5125 0H81.9335C80.2155 0 78.6999 1.26178 78.3717 2.97984Z" fill="white"/>
</svg>
